# xmcd
#
# Track frame offsets:
#	150
#	12815
#	28415
#	41785
#	55189
#	65482
#	77440
#	98845
#	110437
#	122260
#	134187
#	150107
#	162830
#	177695
#	190940
#	202217
#	215257
#	229777
#	238892
#	250440
#
# Disc length: 3573
#
# Revision: 1
# Processed by: cddbd v1.5.1PL0 Copyright (c) Steve Scherf et al.
# Submitted via: ExactAudioCopy v0.95a4
# Normalized: r0:TRMNUM
#
DISCID=1b0df314
DTITLE=Various Artist - Volani taboroveho ohne
DYEAR=2001
DGENRE=Country
TTITLE0=Postou holubi
TTITLE1=Dalnice c.5
TTITLE2=Krinolina
TTITLE3=Vracim se vracim
TTITLE4=Dobrej den
TTITLE5=V tomhle mrtvym busi
TTITLE6=Pahorky
TTITLE7=Stara stezka
TTITLE8=Kacak
TTITLE9=Battleration
TTITLE10=Proudy svetel
TTITLE11=Chudak holka
TTITLE12=Vitr
TTITLE13=Ohrada
TTITLE14=Stola c.14
TTITLE15=Matilda
TTITLE16=Krasna Isabel
TTITLE17=Stastnej tulak
TTITLE18=Rodne udoli
TTITLE19=Cas divnej pisni
EXTD=
EXTT0=
EXTT1=
EXTT2=
EXTT3=
EXTT4=
EXTT5=
EXTT6=
EXTT7=
EXTT8=
EXTT9=
EXTT10=
EXTT11=
EXTT12=
EXTT13=
EXTT14=
EXTT15=
EXTT16=
EXTT17=
EXTT18=
EXTT19=
PLAYORDER=
